<svg xmlns="http://www.w3.org/2000/svg" viewBox="0 0 1024 1024"><defs><filter id="sh" x="-20%" y="-20%" width="140%" height="140%"><feDropShadow dx="0" dy="14" stdDeviation="16" flood-color="#000" flood-opacity=".3"/></filter>
<linearGradient id="bg" x1="0" y1="0" x2="0" y2="1"><stop offset="0" stop-color="#2a1630"/><stop offset="1" stop-color="#120a16"/></linearGradient>
<radialGradient id="core" cx=".35" cy=".3" r=".8"><stop offset="0" stop-color="#ffd2a6"/><stop offset="1" stop-color="#ff6a4d"/></radialGradient></defs>
<rect x="100" y="100" width="824" height="824" rx="185" fill="url(#bg)" filter="url(#sh)"/>
<rect x="101.5" y="101.5" width="821" height="821" rx="184" fill="none" stroke="#fff" stroke-opacity=".09" stroke-width="3"/>
<circle cx="512" cy="530" r="236" fill="none" stroke="#fff" stroke-opacity=".09" stroke-width="6"/>
<g stroke="#ff9a7a" stroke-opacity=".75" stroke-width="18" stroke-linecap="round">
<line x1="512" y1="530" x2="512" y2="294"/><line x1="512" y1="530" x2="716" y2="648"/><line x1="512" y1="530" x2="308" y2="648"/>
</g>
<circle cx="512" cy="294" r="78" fill="#fff5ee"/><circle cx="512" cy="294" r="42" fill="#46c37b"/>
<circle cx="716" cy="648" r="78" fill="#fff5ee"/><circle cx="716" cy="648" r="42" fill="#f5c84c"/>
<circle cx="308" cy="648" r="78" fill="#fff5ee"/><circle cx="308" cy="648" r="42" fill="#7dd3fc"/>
<circle cx="512" cy="530" r="122" fill="url(#core)" stroke="#120a16" stroke-width="16"/>
<path d="M474 482 l52 48 -52 48" fill="none" stroke="#fff" stroke-width="30" stroke-linecap="round" stroke-linejoin="round"/>
</svg>
